<svg width="34" height="34" viewBox="0 0 34 34" fill="none" xmlns="http://www.w3.org/2000/svg">
<g clip-path="url(#clip0_1_280)">
<path d="M0.725664 16.7967C0.724867 19.6534 1.47712 22.4427 2.90751 24.9013L0.588867 33.3014L9.25249 31.0474C11.6487 32.3417 14.3336 33.0199 17.0619 33.0201H17.069C26.0757 33.0201 33.4074 25.748 33.4112 16.8095C33.4129 12.4782 31.7145 8.40533 28.6288 5.34111C25.5435 2.27716 21.4403 0.588891 17.0684 0.586914C8.06064 0.586914 0.729516 7.8587 0.725797 16.7967" fill="url(#paint0_linear_1_280)"/>
<path d="M0.142109 16.7913C0.14118 19.7507 0.920391 22.6398 2.40178 25.1864L0 33.8876L8.97427 31.5528C11.447 32.8905 14.231 33.5958 17.0639 33.5969H17.0712C26.401 33.5969 33.996 26.0631 34 16.8047C34.0016 12.3178 32.2421 8.09846 29.0461 4.92446C25.8497 1.75087 21.5997 0.00184496 17.0712 0C7.73978 0 0.145828 7.53271 0.142109 16.7913ZM5.48662 24.7478L5.15153 24.22C3.74292 21.9976 2.99944 19.4294 3.0005 16.7923C3.00342 9.09684 9.3152 2.83597 17.0765 2.83597C20.8351 2.83755 24.3674 4.29138 27.0242 6.92915C29.6808 9.56718 31.1427 13.0739 31.1417 16.8036C31.1383 24.4991 24.8264 30.7608 17.0712 30.7608H17.0656C14.5404 30.7595 12.0639 30.0866 9.90409 28.815L9.39011 28.5126L4.06459 29.898L5.48662 24.7478Z" fill="url(#paint1_linear_1_280)"/>
<path d="M12.8396 9.7711C12.5227 9.07226 12.1892 9.05815 11.8879 9.0459C11.6411 9.03536 11.359 9.03615 11.0772 9.03615C10.7951 9.03615 10.3368 9.14144 9.94934 9.56117C9.56153 9.98129 8.46875 10.9965 8.46875 13.0615C8.46875 15.1264 9.98454 17.1221 10.1958 17.4024C10.4074 17.6822 13.1221 22.0552 17.4215 23.7376C20.9947 25.1357 21.7218 24.8576 22.4973 24.7875C23.273 24.7177 25.0001 23.7725 25.3524 22.7924C25.705 21.8125 25.705 20.9725 25.5993 20.797C25.4936 20.6221 25.2115 20.5171 24.7885 20.3073C24.3655 20.0975 22.2858 19.082 21.8981 18.9419C21.5103 18.8019 21.2283 18.7321 20.9462 19.1523C20.6641 19.5719 19.8541 20.5171 19.6072 20.797C19.3606 21.0775 19.1137 21.1125 18.6908 20.9025C18.2675 20.692 16.9053 20.2493 15.2891 18.8196C14.0316 17.7071 13.1827 16.3332 12.9359 15.913C12.6891 15.4934 12.9095 15.2659 13.1216 15.0568C13.3116 14.8687 13.5447 14.5667 13.7564 14.3217C13.9673 14.0766 14.0377 13.9017 14.1788 13.6218C14.3199 13.3416 14.2493 13.0965 14.1437 12.8866C14.0377 12.6767 13.2157 10.6009 12.8396 9.7711Z" fill="white"/>
</g>
<defs>
<linearGradient id="paint0_linear_1_280" x1="1641.71" y1="3272.03" x2="1641.71" y2="0.586914" gradientUnits="userSpaceOnUse">
<stop stop-color="#654922"/>
<stop offset="1" stop-color="#654922"/>
</linearGradient>
<linearGradient id="paint1_linear_1_280" x1="1700" y1="3388.76" x2="1700" y2="0" gradientUnits="userSpaceOnUse">
<stop stop-color="#F9F9F9"/>
<stop offset="1" stop-color="white"/>
</linearGradient>
<clipPath id="clip0_1_280">
<rect width="34" height="34" fill="white"/>
</clipPath>
</defs>
</svg>
